Coordinates
version=1
nRows=4
nColumns=114
inDegrees=yes

Units are S.I. units (second, meters, Newtons, ...)
If the header above contains a line with 'inDegrees', this indicates whether rotational values are in degrees (yes) or radians (no).

endheader 
time	pelvis_tilt	pelvis_list	pelvis_rotation	pelvis_tx	pelvis_ty	pelvis_tz	hip_flexion_l	hip_adduction_l	hip_rotation_l	hip_flexion_r	hip_adduction_r	hip_rotation_r	knee_angle_l	knee_angle_r	ankle_angle_l	ankle_angle_r	subtalar_angle_l	subtalar_angle_r	mtp_angle_l	mtp_angle_r	lumbar_extension	lumbar_bending	lumbar_rotation	arm_flex_l	arm_add_l	arm_rot_l	arm_flex_r	arm_add_r	arm_rot_r	elbow_flex_l	elbow_flex_r	pro_sup_l	pro_sup_r	addbrev_l/activation	addlong_l/activation	addmagDist_l/activation	addmagIsch_l/activation	addmagMid_l/activation	addmagProx_l/activation	bflh_l/activation	bfsh_l/activation	edl_l/activation	ehl_l/activation	fdl_l/activation	fhl_l/activation	gaslat_l/activation	gasmed_l/activation	glmax1_l/activation	glmax2_l/activation	glmax3_l/activation	glmed1_l/activation	glmed2_l/activation	glmed3_l/activation	glmin1_l/activation	glmin2_l/activation	glmin3_l/activation	grac_l/activation	iliacus_l/activation	perbrev_l/activation	perlong_l/activation	piri_l/activation	psoas_l/activation	recfem_l/activation	sart_l/activation	semimem_l/activation	semiten_l/activation	soleus_l/activation	tfl_l/activation	tibant_l/activation	tibpost_l/activation	vasint_l/activation	vaslat_l/activation	vasmed_l/activation	addbrev_r/activation	addlong_r/activation	addmagDist_r/activation	addmagIsch_r/activation	addmagMid_r/activation	addmagProx_r/activation	bflh_r/activation	bfsh_r/activation	edl_r/activation	ehl_r/activation	fdl_r/activation	fhl_r/activation	gaslat_r/activation	gasmed_r/activation	glmax1_r/activation	glmax2_r/activation	glmax3_r/activation	glmed1_r/activation	glmed2_r/activation	glmed3_r/activation	glmin1_r/activation	glmin2_r/activation	glmin3_r/activation	grac_r/activation	iliacus_r/activation	perbrev_r/activation	perlong_r/activation	piri_r/activation	psoas_r/activation	recfem_r/activation	sart_r/activation	semimem_r/activation	semiten_r/activation	soleus_r/activation	tfl_r/activation	tibant_r/activation	tibpost_r/activation	vasint_r/activation	vaslat_r/activation	vasmed_r/activation	
          7.82000000	        -17.17576176	        -19.30384384	         10.20811256	         -2.51540976	          1.09671480	          0.04113496	         41.32986400	        -13.89949043	         23.32450697	         -1.17884924	        -11.64392126	        -19.82861922	         17.98641482	         21.05949704	         -5.80770605	         -5.46222228	         -3.83847622	        -11.68809911	         -2.65868140	          0.63811689	          4.14887787	        -25.75129340	          9.08661182	       -330.62069846	         -7.27394740	         18.61274041	       -252.06013880	         14.50904784	         11.86303787	         60.09562182	         18.68972984	         90.58077726	        119.96971570	          0.02798573	          0.09878646	          0.02086998	          0.01108248	          0.04309854	          0.05595781	          0.07340659	          0.15083228	          0.20323373	          0.12270444	          0.01791740	          0.01129765	          0.04295387	          0.03414640	          0.04051888	          0.10422964	          0.13556285	          0.01007851	          0.01008718	          0.01011101	          0.01044082	          0.02054026	          0.01957761	          0.05552249	          0.23179682	          0.07822068	          0.08360086	          0.11079692	          0.28383535	          0.03454759	          0.21906687	          0.02444069	          0.04341064	          0.03827885	          0.02160163	          0.29560035	          0.01951836	          0.03675146	          0.05929375	          0.04296644	          0.02146141	          0.06802382	          0.01016082	          0.01013292	          0.01042376	          0.03385470	          0.05782440	          0.06078855	          0.06505128	          0.02889972	          0.02888550	          0.01268348	          0.03650418	          0.02109688	          0.01463790	          0.01397341	          0.04544603	          0.04085572	          0.03321420	          0.03928114	          0.03226090	          0.03606223	          0.04298704	          0.02419711	          0.06258336	          0.03501797	          0.05772183	          0.03993837	          0.08363943	          0.03862688	          0.07393682	          0.03360737	          0.02088795	          0.01652082	          0.03078009	          0.10414722	          0.01053989	          0.01929552	          0.01142583	          0.01131449	
          7.83000000	        -17.19653065	        -19.86033208	         10.93088698	         -2.51329820	          1.10811531	          0.03709857	         41.81558224	        -13.81525056	         23.62411242	         -1.48907944	        -12.06642518	        -19.86985558	         18.41919233	         19.90562129	         -5.45027933	         -6.23684452	         -3.63142717	        -11.47555250	         -2.35015411	          0.56830635	          3.58946582	        -25.44076801	         10.91998529	       -328.34741926	         -4.23325808	         25.97834718	       -251.37160061	         14.38911528	         16.02983932	         52.66686510	         18.23165498	         89.11073753	        119.32025833	          0.02341239	          0.08234001	          0.01759222	          0.01034295	          0.03608818	          0.04679765	          0.06126875	          0.12570708	          0.16937272	          0.10227053	          0.01514056	          0.01038640	          0.03582653	          0.03031618	          0.03382480	          0.08693506	          0.11304401	          0.01015638	          0.01016366	          0.01018934	          0.01077791	          0.01716003	          0.01639756	          0.04635077	          0.19316958	          0.06523168	          0.07917876	          0.09233796	          0.23653497	          0.02885460	          0.18256425	          0.02046889	          0.03630476	          0.03978440	          0.01815923	          0.24633938	          0.01630160	          0.03072368	          0.04943356	          0.03588139	          0.06308726	          0.06285643	          0.01192603	          0.01023550	          0.05352693	          0.14835335	          0.04846237	          0.05070549	          0.05796423	          0.02425690	          0.02417548	          0.01371529	          0.03100475	          0.01761261	          0.01224962	          0.01167378	          0.03800661	          0.03404980	          0.02769668	          0.03284047	          0.02689301	          0.03008024	          0.03594426	          0.03483438	          0.05218521	          0.02921301	          0.04812327	          0.04684202	          0.07024075	          0.03219982	          0.06169290	          0.02801475	          0.01743947	          0.01379153	          0.02568372	          0.08796179	          0.03021918	          0.01612811	          0.01004074	          0.01009176	
          7.84000000	        -17.10227197	        -20.41795687	         11.67232551	         -2.51119637	          1.11872562	          0.03307852	         42.11046241	        -13.76769582	         23.96410560	         -1.94201485	        -12.43010788	        -19.88160053	         18.51710199	         18.72435848	         -5.40772448	         -6.94302201	         -3.29781142	        -10.90662642	         -2.07439327	          0.50460871	          2.87813206	        -25.03188877	         12.55244035	       -325.89785543	         -0.44523038	         31.39761809	       -250.14327326	         13.70693951	         25.11206805	         44.03099467	         19.50473202	         87.28145858	        118.45964466	          0.01961056	          0.06863388	          0.04272084	          0.03655837	          0.03960079	          0.03931602	          0.07112026	          0.10477175	          0.14115659	          0.08524150	          0.01277863	          0.01073349	          0.03928543	          0.02813277	          0.02832886	          0.09243805	          0.13587592	          0.01015947	          0.01015918	          0.01016289	          0.01076348	          0.01435524	          0.01378287	          0.03876388	          0.16098033	          0.05474273	          0.07276745	          0.07697272	          0.19711814	          0.02411052	          0.15214638	          0.05549315	          0.03810976	          0.03606231	          0.01535118	          0.20528911	          0.01365642	          0.03057409	          0.04123976	          0.03300772	          0.05265296	          0.05241709	          0.01085836	          0.01023931	          0.04474332	          0.12377944	          0.04048493	          0.04230721	          0.04832196	          0.02045327	          0.02314951	          0.01941932	          0.02587950	          0.01472446	          0.01174306	          0.01061648	          0.03636623	          0.02837839	          0.02310582	          0.10510730	          0.02242056	          0.02510434	          0.03027668	          0.02916663	          0.04351965	          0.02438027	          0.04011683	          0.04435455	          0.05862906	          0.02755121	          0.05150165	          0.02335447	          0.01457247	          0.01258038	          0.02142440	          0.07699488	          0.02523715	          0.01444023	          0.01441147	          0.01436842	
          7.85000000	        -16.89660835	        -20.99962428	         12.48521821	         -2.50917874	          1.12857899	          0.02953014	         42.29806181	        -13.78166966	         24.36900618	         -2.55015980	        -12.64197324	        -19.94238765	         18.40241678	         17.43457524	         -5.54103138	         -7.64945563	         -2.90493010	        -10.07302951	         -1.83018576	          0.44390458	          1.96077895	        -24.52445245	         13.98687050	       -322.54231929	          3.33510047	         36.48026631	       -247.55465696	         16.11362528	         15.09576023	         35.14848867	         15.12165902	         85.51531011	        118.61793951	          0.01640183	          0.05721049	          0.03566547	          0.03052239	          0.03309617	          0.03291847	          0.05933919	          0.08732969	          0.11766182	          0.07107758	          0.01307426	          0.01322585	          0.03277248	          0.02771570	          0.02465618	          0.10054486	          0.11328915	          0.01015586	          0.01023244	          0.01070727	          0.01065518	          0.01205660	          0.01174384	          0.03242986	          0.13415728	          0.04572473	          0.06358456	          0.06415244	          0.16427203	          0.02019486	          0.12680074	          0.04627351	          0.03204242	          0.03010052	          0.01323887	          0.17108861	          0.01234556	          0.02571447	          0.03438523	          0.02762161	          0.04401446	          0.04374619	          0.01157336	          0.01037707	          0.03759663	          0.10353719	          0.03394326	          0.03533585	          0.05266463	          0.01733630	          0.01934856	          0.01631903	          0.02302399	          0.01240741	          0.01233577	          0.01205646	          0.03038394	          0.02365225	          0.01927934	          0.08789775	          0.01869439	          0.02096198	          0.02578539	          0.02447083	          0.03631592	          0.02037830	          0.03391087	          0.05132247	          0.04900377	          0.02296646	          0.04304941	          0.01947322	          0.01220660	          0.01204257	          0.01788555	          0.08191705	          0.02106923	          0.01227186	          0.01209343	          0.01218075	
